<svg width="48" height="48" viewBox="0 0 48 48" fill="none" xmlns="http://www.w3.org/2000/svg">
<rect width="48" height="48" rx="8" fill="#151618"/>
<g style="mix-blend-mode:overlay">
<rect x="0.5" y="0.5" width="47" height="47" rx="7.5" stroke="url(#paint0_linear_1_8110)"/>
</g>
<g style="mix-blend-mode:overlay">
<rect x="47.5" y="47.5" width="47" height="47" rx="7.5" transform="rotate(-180 47.5 47.5)" stroke="url(#paint1_linear_1_8110)" stroke-opacity="0.2"/>
</g>
<g filter="url(#filter0_ddi_1_8110)">
<path fill-rule="evenodd" clip-rule="evenodd" d="M32.0916 19.5421C32.8523 19.5905 33.9157 19.7735 34.6804 20.5382C35.795 21.6528 35.795 23.4599 34.6804 24.5745L24.5745 34.6803C23.4599 35.7949 21.6528 35.7949 20.5382 34.6803C19.7736 33.9156 19.5905 32.8522 19.5422 32.0916C19.5044 31.4984 19.2734 30.587 18.3137 29.6274C17.3541 28.6678 16.4427 28.4367 15.8496 28.399C15.0889 28.3506 14.0255 28.1676 13.2608 27.4029C12.1462 26.2883 12.1462 24.4812 13.2608 23.3666L23.3667 13.2608C24.4812 12.1462 26.2884 12.1462 27.403 13.2608C28.1676 14.0255 28.3506 15.0889 28.399 15.8495C28.4368 16.4427 28.6678 17.3541 29.6275 18.3137C30.5871 19.2733 31.4985 19.5044 32.0916 19.5421ZM23.9706 20.1421C23.4183 20.1421 22.9706 20.5898 22.9706 21.1421V26.799C22.9706 27.3513 23.4183 27.799 23.9706 27.799C24.5229 27.799 24.9706 27.3513 24.9706 26.799V21.1421C24.9706 20.5898 24.5229 20.1421 23.9706 20.1421ZM21.8493 23.2634C22.2398 23.654 22.2398 24.2871 21.8493 24.6777C21.4588 25.0682 20.8256 25.0682 20.4351 24.6777C20.0445 24.2871 20.0445 23.654 20.4351 23.2634C20.8256 22.8729 21.4588 22.8729 21.8493 23.2634ZM26.0919 24.6777C26.4824 25.0682 27.1156 25.0682 27.5061 24.6777C27.8967 24.2871 27.8967 23.654 27.5061 23.2634C27.1156 22.8729 26.4824 22.8729 26.0919 23.2634C25.7014 23.654 25.7014 24.2871 26.0919 24.6777Z" fill="url(#paint2_linear_1_8110)"/>
</g>
<g style="mix-blend-mode:overlay" opacity="0.5">
<path d="M32.0757 19.7916C32.8214 19.839 33.8059 20.0173 34.5036 20.715C35.5206 21.7319 35.5205 23.3807 34.5036 24.3977L24.3978 34.5035C23.3808 35.5205 21.732 35.5205 20.715 34.5035C20.0173 33.8059 19.8391 32.8214 19.7917 32.0757C19.7504 31.4278 19.4972 30.4573 18.4905 29.4506C17.4838 28.444 16.5133 28.1907 15.8654 28.1495C15.1198 28.1021 14.1353 27.9238 13.4376 27.2261C12.4207 26.2092 12.4207 24.5604 13.4376 23.5434L23.5434 13.4376C24.5604 12.4206 26.2092 12.4206 27.2262 13.4376C27.9238 14.1352 28.1021 15.1197 28.1495 15.8654C28.1908 16.5133 28.444 17.4838 29.4507 18.4905C30.4573 19.4971 31.4279 19.7504 32.0757 19.7916Z" stroke="url(#paint3_linear_1_8110)" stroke-width="0.5" stroke-linejoin="round"/>
</g>
<defs>
<filter id="filter0_ddi_1_8110" x="2.4248" y="2.4248" width="43.0913" height="43.0914" filterUnits="userSpaceOnUse" color-interpolation-filters="sRGB">
<feFlood flood-opacity="0" result="BackgroundImageFix"/>
<feColorMatrix in="SourceAlpha" type="matrix" values="0 0 0 0 0 0 0 0 0 0 0 0 0 0 0 0 0 0 127 0" result="hardAlpha"/>
<feOffset dx="-2" dy="-2"/>
<feGaussianBlur stdDeviation="4"/>
<feComposite in2="hardAlpha" operator="out"/>
<feColorMatrix type="matrix" values="0 0 0 0 0.203542 0 0 0 0 0.22419 0 0 0 0 0.25 0 0 0 1 0"/>
<feBlend mode="normal" in2="BackgroundImageFix" result="effect1_dropShadow_1_8110"/>
<feColorMatrix in="SourceAlpha" type="matrix" values="0 0 0 0 0 0 0 0 0 0 0 0 0 0 0 0 0 0 127 0" result="hardAlpha"/>
<feOffset dx="2" dy="2"/>
<feGaussianBlur stdDeviation="4"/>
<feComposite in2="hardAlpha" operator="out"/>
<feColorMatrix type="matrix" values="0 0 0 0 0 0 0 0 0 0 0 0 0 0 0 0 0 0 1 0"/>
<feBlend mode="normal" in2="effect1_dropShadow_1_8110" result="effect2_dropShadow_1_8110"/>
<feBlend mode="normal" in="SourceGraphic" in2="effect2_dropShadow_1_8110" result="shape"/>
<feColorMatrix in="SourceAlpha" type="matrix" values="0 0 0 0 0 0 0 0 0 0 0 0 0 0 0 0 0 0 127 0" result="hardAlpha"/>
<feOffset dx="-4" dy="-4"/>
<feGaussianBlur stdDeviation="8"/>
<feComposite in2="hardAlpha" operator="arithmetic" k2="-1" k3="1"/>
<feColorMatrix type="matrix" values="0 0 0 0 0.160784 0 0 0 0 0.176471 0 0 0 0 0.196078 0 0 0 0.5 0"/>
<feBlend mode="normal" in2="shape" result="effect3_innerShadow_1_8110"/>
</filter>
<linearGradient id="paint0_linear_1_8110" x1="0" y1="0" x2="48" y2="48" gradientUnits="userSpaceOnUse">
<stop stop-color="white"/>
<stop offset="0.48964" stop-color="white" stop-opacity="0"/>
</linearGradient>
<linearGradient id="paint1_linear_1_8110" x1="48" y1="48" x2="96" y2="96" gradientUnits="userSpaceOnUse">
<stop stop-color="white"/>
<stop offset="0.48964" stop-color="white" stop-opacity="0"/>
</linearGradient>
<linearGradient id="paint2_linear_1_8110" x1="25" y1="12" x2="25" y2="36" gradientUnits="userSpaceOnUse">
<stop stop-color="white"/>
<stop offset="1" stop-color="#656565"/>
</linearGradient>
<linearGradient id="paint3_linear_1_8110" x1="22.5" y1="13.5" x2="27" y2="24" gradientUnits="userSpaceOnUse">
<stop stop-color="white"/>
<stop offset="1" stop-color="white" stop-opacity="0"/>
</linearGradient>
</defs>
</svg>
