<svg width="143" height="44" viewBox="0 0 143 44" fill="none" xmlns="http://www.w3.org/2000/svg">
<path d="M1.728 18H7.866L9.45 12.06H12.528L10.944 18H17.082L21.042 3.168H14.904L13.32 9.108H4.122L1.728 18ZM10.656 7.614L11.844 3.168H0.27L4.518 7.614H10.656ZM34.2037 18L37.7857 4.662L36.6517 3.186H24.3757L22.4497 4.662L18.8677 18H25.0057L26.1937 13.554H29.2717L28.0657 18H34.2037ZM26.9857 10.584L27.7777 7.632H30.8557L30.0637 10.584H26.9857ZM51.3775 18L52.9795 12.078L51.8275 10.584L53.7715 9.108L54.9595 4.662L53.8255 3.186H40.0195L36.0415 18H42.1795L43.3675 13.554H46.4455L45.2395 18H51.3775ZM47.6335 9.108H44.5555L44.9515 7.632H48.0295L47.6335 9.108ZM77.7673 18L81.3313 4.662L80.1973 3.186H58.7233L56.7973 4.662L53.2153 18H59.3533L62.1253 7.632H65.2033L62.4133 18H68.5513L71.3413 7.632H74.4013L71.6293 18H77.7673ZM93.3265 18L95.2525 16.506L98.4385 4.662L97.3045 3.168H85.0285L83.0845 4.662L79.9165 16.506L81.0505 18H93.3265ZM89.9245 13.554H86.8465L88.4305 7.614H91.5085L89.9245 13.554ZM112.022 18L115.604 4.662L114.47 3.186H102.194L100.268 4.662L96.686 18H102.824L105.596 7.632H108.674L105.884 18H112.022ZM127.666 18L129.592 16.524L133.174 3.186H127.036L125.542 8.73H122.482L123.976 3.186H117.838L115.696 11.142L116.83 12.618H124.498L124.102 14.112H114.904L113.86 18H127.666ZM10.242 31.108H4.104L1.728 40H15.534L16.722 35.554H9.054L10.242 31.108ZM10.638 29.614L11.826 25.168H0.27L4.5 29.614H10.638ZM32.6568 40L36.2388 26.662L35.1048 25.186H22.8288L20.9028 26.662L17.3208 40H23.4588L24.6468 35.554H27.7248L26.5188 40H32.6568ZM25.4388 32.584L26.2308 29.632H29.3088L28.5168 32.584H25.4388ZM48.2386 40L50.1646 38.524L53.7466 25.186H47.6086L44.8366 35.554H41.7586L44.5306 25.186H38.4106L34.8286 38.524L35.9626 40H48.2386ZM66.9165 40L70.4985 26.662L69.3645 25.186H57.0885L55.1625 26.662L51.5805 40H57.7185L60.4905 29.632H63.5685L60.7785 40H66.9165ZM86.4224 31.108L87.6104 26.662L86.4764 25.186H74.2004L72.2564 26.662L69.0884 38.524L70.2224 40H82.4984L84.4244 38.524L85.6304 34.078H79.4924L79.0964 35.554H76.0184L77.6024 29.632H80.6804L80.2844 31.108H86.4224ZM101.194 40L105.172 25.186H99.0339L97.4499 31.108H94.3719L95.9739 25.186H89.8359L85.8579 40H91.9959L93.5799 34.078H96.6579L95.0559 40H101.194ZM121.096 29.632L122.284 25.186H108.478L106.534 26.662L103.366 38.524L104.5 40H118.306L119.494 35.554H110.296L110.692 34.078H118.36L119.152 31.108H111.484L111.88 29.632H121.096ZM135.454 40L137.056 34.078L135.904 32.584L137.848 31.108L139.036 26.662L137.902 25.186H124.096L120.118 40H126.256L127.444 35.554H130.522L129.316 40H135.454ZM131.71 31.108H128.632L129.028 29.632H132.106L131.71 31.108Z" fill="url(#paint0_linear_1_8117)"/>
<defs>
<linearGradient id="paint0_linear_1_8117" x1="-22" y1="18" x2="169.5" y2="18" gradientUnits="userSpaceOnUse">
<stop stop-color="#8A8A8A"/>
<stop offset="1" stop-color="white"/>
</linearGradient>
</defs>
</svg>
